Coordinates
version=1
nRows=30
nColumns=19
inDegrees=yes

Units are S.I. units (second, meters, Newtons, ...)
If the header above contains a line with 'inDegrees', this indicates whether rotational values are in degrees (yes) or radians (no).

endheader
time	pelvis_tilt	pelvis_list	pelvis_rotation	pelvis_tx	pelvis_ty	pelvis_tz	hip_flexion_r	hip_adduction_r	hip_rotation_r	knee_angle_r	knee_angle_r_beta	ankle_angle_r	hip_flexion_l	hip_adduction_l	hip_rotation_l	knee_angle_l	knee_angle_l_beta	ankle_angle_l
     11.42000000	     -9.55970463	     -1.69557932	     -4.39824028	      2.18901839	      1.08647013	      1.03020811	     24.87067443	      4.27000595	     -8.67979447	     10.24062738	      0.17873267	     -2.26652148	     -3.35215853	    -10.14389567	    -16.71676862	     58.94499621	      1.02878426	     -7.19461457
     11.42666667	     -9.13738858	     -1.96500229	     -4.59972475	      2.18848918	      1.08159801	      1.03059111	     25.07956355	      4.38711006	     -9.02157944	     12.70903061	      0.22181443	     -1.51605635	     -2.91544587	    -10.51094940	    -15.95717952	     62.07111491	      1.08334533	     -7.07924327
     11.43333333	     -9.28098555	     -2.11592136	     -4.78848286	      2.18763485	      1.07555775	      1.03088046	     26.12767903	      4.34622610	     -9.40453678	     15.79056185	      0.27559730	     -0.39554998	     -1.71668849	    -10.74857579	    -15.07194349	     65.32354086	      1.14011087	     -6.94135718
     11.44000000	     -9.22533295	     -2.29729273	     -4.94840618	      2.18672276	      1.06952134	      1.03097635	     26.97101914	      4.27340522	     -9.76842523	     19.04384602	      0.33237782	      0.99753704	     -0.69247669	    -10.97957373	    -14.20565871	     68.50902090	      1.19570798	     -6.81527792
     11.44666667	     -9.20851183	     -2.41480237	     -5.07903952	      2.18565669	      1.06322879	      1.03092304	     27.88399457	      4.10790540	    -10.02132173	     22.45783251	      0.39196312	      2.66575804	      0.45284992	    -11.10140892	    -13.30048448	     71.64958634	      1.25052119	     -6.66940192
     11.45333333	     -9.22624387	     -2.49217930	     -5.15792530	      2.18441788	      1.05679333	      1.03074651	     28.80648431	      3.89514184	    -10.13651957	     25.88671497	      0.45180841	      4.55326778	      1.72359626	    -11.15276446	    -12.34926609	     74.74063057	      1.30447009	     -6.48025710
     11.46000000	     -9.35949134	     -2.49617747	     -5.17379500	      2.18302274	      1.05024100	      1.03047106	     29.78731179	      3.62560048	    -10.10102491	     29.23209347	      0.51019628	      6.61722971	      3.22264347	    -11.11016608	    -11.34823752	     77.76423171	      1.35724188	     -6.30589772
     11.46666667	     -9.46468543	     -2.44607593	     -5.10958788	      2.18146275	      1.04392684	      1.03009045	     30.62780587	      3.30987151	     -9.96065120	     32.38548022	      0.56523326	      8.74913611	      4.78476469	    -10.95624445	    -10.27888821	     80.66810463	      1.40792403	     -6.09388332
     11.47333333	     -9.77568232	     -2.37626395	     -5.00298970	      2.17969567	      1.03763615	      1.02970687	     31.54945375	      3.03700541	     -9.69275189	     35.26907861	      0.61556155	     10.88302017	      6.67290752	    -10.78965234	     -9.19656343	     83.49760236	      1.45730808	     -5.78707087
     11.48000000	    -10.09033473	     -2.28779773	     -4.79727787	      2.17777782	      1.03180846	      1.02924928	     32.29873498	      2.74521828	     -9.43269435	     37.82324987	      0.66014024	     12.95459304	      8.66606223	    -10.56530278	     -8.05225886	     86.17389083	      1.50401812	     -5.49770686
     11.48666667	    -10.44791127	     -2.20176256	     -4.50688552	      2.17573899	      1.02650262	      1.02872451	     32.89312718	      2.45428580	     -9.20890240	     40.00450478	      0.69821032	     14.90315947	     10.79742008	    -10.29975737	     -6.85978156	     88.68100891	      1.54777559	     -5.19860327
     11.49333333	    -10.81179852	     -2.13540254	     -4.13843341	      2.17361022	      1.02181722	      1.02814516	     33.28967338	      2.16333657	     -9.07481472	     41.80976534	      0.72971806	     16.69758454	     13.01194273	    -10.03561666	     -5.66044823	     90.99078767	      1.58808883	     -4.89368749
     11.50000000	    -11.21091958	     -2.09855428	     -3.73536375	      2.17143283	      1.01777973	      1.02757042	     33.50638231	      1.90116597	     -9.01175281	     43.22049878	      0.75434001	     18.31513501	     15.31602141	     -9.77705822	     -4.49298452	     93.07631985	      1.62448824	     -4.59181540
     11.50666667	    -11.59189096	     -2.10160460	     -3.25761027	      2.16928356	      1.01450269	      1.02689759	     33.48912529	      1.62875805	     -9.10794953	     44.25593255	      0.77241174	     19.71091611	     17.65021086	     -9.51551408	     -3.31971218	     94.91468171	      1.65657370	     -4.32374277
     11.51333333	    -11.75213356	     -2.14885959	     -2.76113322	      2.16732038	      1.01231949	      1.02622871	     33.00216454	      1.38843920	     -9.29345340	     44.88065152	      0.78331514	     20.92467991	     19.72307228	     -9.27902112	     -2.23402866	     96.42894938	      1.68300266	     -4.05598202
     11.52000000	    -12.12388347	     -2.18613364	     -2.29976932	      2.16537693	      1.01050965	      1.02563612	     32.58987403	      1.16621924	     -9.51624417	     45.22519368	      0.78932853	     21.91353797	     22.03340773	     -9.04324723	     -1.26534958	     97.68951021	      1.70500360	     -3.82480052
     11.52666667	    -12.14845532	     -2.26456064	     -1.82154693	      2.16373340	      1.00997903	      1.02502600	     31.58766990	      0.96754786	     -9.86022499	     45.19401481	      0.78878436	     22.70828038	     23.90144606	     -8.83749251	     -0.40599138	     98.58102210	      1.72056342	     -3.58451377
     11.53333333	    -12.24862599	     -2.33794767	     -1.40682744	      2.16227251	      1.01002117	      1.02452802	     30.52018742	      0.82206846	    -10.18592952	     44.88513983	      0.78339348	     23.29207858	     25.79373690	     -8.66444332	      0.29000787	     99.16975337	      1.73083871	     -3.35450638
     11.54000000	    -12.33052621	     -2.37980982	     -1.07366440	      2.16106758	      1.01077072	      1.02416396	     29.30118068	      0.71141311	    -10.46409503	     44.32607574	      0.77363597	     23.71304731	     27.56667155	     -8.51557870	      0.77851140	     99.42675935	      1.73532432	     -3.11021330
     11.54666667	    -12.41932622	     -2.15549924	     -1.05760100	      2.16019712	      1.01226781	      1.02423862	     28.03561455	      0.52590294	    -10.32501341	     43.61442912	      0.76121539	     23.87013461	     29.11185640	     -8.29209069	      0.69523297	     99.24273430	      1.73211247	     -2.82794194
     11.55333333	    -12.46741471	     -2.39687824	     -0.59632729	      2.15949239	      1.01431317	      1.02371871	     26.45885905	      0.59550013	    -10.91348847	     42.47085059	      0.74125618	     23.82080763	     30.75437934	     -8.31068037	      1.21642950	     98.95376255	      1.72706896	     -2.54766602
     11.56000000	    -12.71600825	     -2.11226867	     -0.64533793	      2.15908370	      1.01670955	      1.02383914	     25.19047736	      0.37104264	    -10.83573983	     41.42676651	      0.72303347	     23.64414540	     32.27169348	     -8.10766696	      0.85511690	     98.19521443	      1.71382980	     -2.20811732
     11.56666667	    -12.53718996	     -2.29874072	     -0.40525864	      2.15919159	      1.02035058	      1.02366579	     23.14410413	      0.59516079	    -11.12274754	     39.79811961	      0.69460822	     23.00537855	     33.32659859	     -8.26145017	      0.91681253	     97.22270134	      1.69685625	     -1.83800978
     11.57333333	    -12.22315796	     -2.10489680	     -0.40714663	      2.15964763	      1.02471947	      1.02374414	     20.98012889	      0.52269676	    -11.07589623	     38.18410542	      0.66643836	     22.29377383	     33.95059301	     -8.19582935	      0.43087636	     95.83495993	      1.67263559	     -1.38405525
     11.58000000	    -12.74228961	     -1.73987990	     -0.49221024	      2.15998392	      1.02821139	      1.02379854	     19.81224646	      0.25606828	    -10.98427375	     36.72675921	      0.64100287	     21.37529340	     35.40739542	     -7.97821750	     -0.22590896	     94.27211709	      1.64535884	     -0.99955356
     11.58666667	    -12.35524354	     -1.68864222	     -0.54528425	      2.16106034	      1.03355983	      1.02397882	     17.41823203	      0.39019692	    -10.91462959	     34.74876556	      0.60648037	     19.82734880	     35.70055683	     -8.14474196	     -0.82124885	     92.39229566	      1.61254976	     -0.63603900
     11.59333333	    -11.87644536	     -1.29087967	     -0.59237384	      2.16240228	      1.03933390	      1.02403081	     14.96452994	      0.11944457	    -10.82440547	     32.83505757	      0.57307986	     18.31952424	     35.69018288	     -7.94108483	     -1.67118132	     90.17972898	      1.57393319	     -0.19613273
     11.60000000	    -11.78442780	     -0.94511927	     -0.65547812	      2.16378541	      1.04474438	      1.02405534	     12.96438700	     -0.10390549	    -10.75367711	     30.94534925	      0.54009823	     16.46290276	     36.03078809	     -7.78651385	     -2.51525238	     87.81821725	      1.53271703	      0.13163651
     11.60666667	    -11.64377186	     -0.54872763	     -0.68926490	      2.16534149	      1.05040069	      1.02397440	     10.93276593	     -0.39585251	    -10.69790113	     29.04813517	      0.50698560	     14.36707659	     36.18894369	     -7.54272892	     -3.39047193	     85.22008987	      1.48737116	      0.44757688
     11.61333333	    -11.48879386	     -0.11218504	     -0.73135202	      2.16699621	      1.05616783	      1.02391258	      8.95015238	     -0.75448196	    -10.69510937	     27.21898060	      0.47506083	     12.02826196	     36.21414527	     -7.27911723	     -4.35866009	     82.41800521	      1.43846555	      0.60853561
